<?xml version="1.0" encoding="UTF-8" standalone="no"?><!-- Generator: Gravit.io --><svg xmlns="http://www.w3.org/2000/svg" xmlns:xlink="http://www.w3.org/1999/xlink" style="isolation:isolate" viewBox="0 0 256 160" width="256pt" height="160pt"><defs><clipPath id="_clipPath_EtNQQrVt8hGf0Kz1WV9JZKY0I2B4jM60"><rect width="256" height="160"/></clipPath></defs><g clip-path="url(#_clipPath_EtNQQrVt8hGf0Kz1WV9JZKY0I2B4jM60)"><g style="isolation:isolate"><path d=" M 16 16 L 104 16 L 136 144 L 40 144 L 16 16 Z " fill="rgb(78,205,196)"/><linearGradient id="_lgradient_2" x1="0.8627232142857142" y1="0.1562499999999999" x2="0.2808779761904763" y2="1.0247395833333335" gradientTransform="matrix(120,0,0,128,120,16)" gradientUnits="userSpaceOnUse"><stop offset="0%" stop-opacity="1" style="stop-color:rgb(51,255,204)"/><stop offset="97.82608695652173%" stop-opacity="1" style="stop-color:rgb(78,205,196)"/></linearGradient><path d=" M 208 16 L 240 144 L 152 144 L 120 16 L 208 16 Z " fill="url(#_lgradient_2)"/><linearGradient id="_lgradient_3" x1="0.6593267374517375" y1="0.6840277777777777" x2="1.1397653233590737" y2="1.282986111111111" gradientTransform="matrix(216.144,0,0,82.438,19.928,38.781)" gradientUnits="userSpaceOnUse"><stop offset="0.8695652173913043%" stop-opacity="1" style="stop-color:rgb(26,83,92)"/><stop offset="97.3913043478261%" stop-opacity="1" style="stop-color:rgb(78,205,196)"/></linearGradient><path d=" M 87.783 79.917 L 87.783 111.422 L 87.783 111.422 Q 82.216 116.154 75.37 118.687 L 75.37 118.687 L 75.37 118.687 Q 68.523 121.219 61.12 121.219 L 61.12 121.219 L 61.12 121.219 Q 55.442 121.219 50.182 119.744 L 50.182 119.744 L 50.182 119.744 Q 44.921 118.269 40.357 115.569 L 40.357 115.569 L 40.357 115.569 Q 35.792 112.87 32.007 109.112 L 32.007 109.112 L 32.007 109.112 Q 28.222 105.355 25.55 100.763 L 25.55 100.763 L 25.55 100.763 Q 22.878 96.17 21.403 90.882 L 21.403 90.882 L 21.403 90.882 Q 19.928 85.594 19.928 79.917 L 19.928 79.917 L 19.928 79.917 Q 19.928 74.239 21.403 69.006 L 21.403 69.006 L 21.403 69.006 Q 22.878 63.774 25.55 59.182 L 25.55 59.182 L 25.55 59.182 Q 28.222 54.589 32.007 50.832 L 32.007 50.832 L 32.007 50.832 Q 35.792 47.075 40.357 44.403 L 40.357 44.403 L 40.357 44.403 Q 44.921 41.731 50.182 40.256 L 50.182 40.256 L 50.182 40.256 Q 55.442 38.781 61.12 38.781 L 61.12 38.781 L 61.12 38.781 Q 68.523 38.781 75.37 41.313 L 75.37 41.313 L 75.37 41.313 Q 82.216 43.846 87.783 48.578 L 87.783 48.578 L 79.433 62.494 L 79.433 62.494 Q 75.815 58.82 71.083 56.732 L 71.083 56.732 L 71.083 56.732 Q 66.352 54.645 61.12 54.645 L 61.12 54.645 L 61.12 54.645 Q 55.887 54.645 51.295 56.649 L 51.295 56.649 L 51.295 56.649 Q 46.703 58.653 43.251 62.076 L 43.251 62.076 L 43.251 62.076 Q 39.8 65.5 37.796 70.092 L 37.796 70.092 L 37.796 70.092 Q 35.792 74.684 35.792 79.917 L 35.792 79.917 L 35.792 79.917 Q 35.792 85.205 37.796 89.825 L 37.796 89.825 L 37.796 89.825 Q 39.8 94.445 43.251 97.896 L 43.251 97.896 L 43.251 97.896 Q 46.703 101.347 51.295 103.351 L 51.295 103.351 L 51.295 103.351 Q 55.887 105.355 61.12 105.355 L 61.12 105.355 L 61.12 105.355 Q 64.125 105.355 66.964 104.631 L 66.964 104.631 L 66.964 104.631 Q 69.803 103.908 72.364 102.627 L 72.364 102.627 L 72.364 79.917 L 87.783 79.917 Z  M 115.114 87.598 L 147.065 87.598 L 147.065 71.623 L 147.065 71.623 Q 147.065 68.338 145.813 65.416 L 145.813 65.416 L 145.813 65.416 Q 144.56 62.494 142.389 60.323 L 142.389 60.323 L 142.389 60.323 Q 140.218 58.152 137.296 56.899 L 137.296 56.899 L 137.296 56.899 Q 134.374 55.647 131.089 55.647 L 131.089 55.647 L 131.089 55.647 Q 127.805 55.647 124.883 56.899 L 124.883 56.899 L 124.883 56.899 Q 121.96 58.152 119.79 60.323 L 119.79 60.323 L 119.79 60.323 Q 117.619 62.494 116.366 65.416 L 116.366 65.416 L 116.366 65.416 Q 115.114 68.338 115.114 71.623 L 115.114 71.623 L 115.114 87.598 Z  M 163.041 71.623 L 163.041 119.494 L 147.065 119.494 L 147.065 103.518 L 115.114 103.518 L 115.114 119.494 L 99.194 119.494 L 99.194 71.623 L 99.194 71.623 Q 99.194 64.999 101.699 59.182 L 101.699 59.182 L 101.699 59.182 Q 104.204 53.365 108.518 49.023 L 108.518 49.023 L 108.518 49.023 Q 112.832 44.681 118.648 42.176 L 118.648 42.176 L 118.648 42.176 Q 124.465 39.671 131.089 39.671 L 131.089 39.671 L 131.089 39.671 Q 137.713 39.671 143.53 42.176 L 143.53 42.176 L 143.53 42.176 Q 149.347 44.681 153.689 49.023 L 153.689 49.023 L 153.689 49.023 Q 158.031 53.365 160.536 59.182 L 160.536 59.182 L 160.536 59.182 Q 163.041 64.999 163.041 71.623 L 163.041 71.623 Z  M 172.225 63.607 L 172.225 63.607 L 172.225 63.607 Q 172.225 58.653 174.118 54.311 L 174.118 54.311 L 174.118 54.311 Q 176.01 49.969 179.267 46.713 L 179.267 46.713 L 179.267 46.713 Q 182.523 43.457 186.865 41.564 L 186.865 41.564 L 186.865 41.564 Q 191.207 39.671 196.161 39.671 L 196.161 39.671 L 232.788 39.671 L 232.788 55.647 L 196.161 55.647 L 196.161 55.647 Q 194.491 55.647 193.043 56.259 L 193.043 56.259 L 193.043 56.259 Q 191.596 56.872 190.511 57.957 L 190.511 57.957 L 190.511 57.957 Q 189.425 59.042 188.813 60.49 L 188.813 60.49 L 188.813 60.49 Q 188.201 61.937 188.201 63.607 L 188.201 63.607 L 188.201 63.607 Q 188.201 65.277 188.813 66.752 L 188.813 66.752 L 188.813 66.752 Q 189.425 68.227 190.511 69.313 L 190.511 69.313 L 190.511 69.313 Q 191.596 70.398 193.043 71.01 L 193.043 71.01 L 193.043 71.01 Q 194.491 71.623 196.161 71.623 L 196.161 71.623 L 212.136 71.623 L 212.136 71.623 Q 217.09 71.623 221.46 73.487 L 221.46 73.487 L 221.46 73.487 Q 225.83 75.352 229.086 78.608 L 229.086 78.608 L 229.086 78.608 Q 232.342 81.865 234.207 86.234 L 234.207 86.234 L 234.207 86.234 Q 236.072 90.604 236.072 95.558 L 236.072 95.558 L 236.072 95.558 Q 236.072 100.512 234.207 104.854 L 234.207 104.854 L 234.207 104.854 Q 232.342 109.196 229.086 112.452 L 229.086 112.452 L 229.086 112.452 Q 225.83 115.708 221.46 117.601 L 221.46 117.601 L 221.46 117.601 Q 217.09 119.494 212.136 119.494 L 212.136 119.494 L 176.678 119.494 L 176.678 103.518 L 212.136 103.518 L 212.136 103.518 Q 213.806 103.518 215.253 102.906 L 215.253 102.906 L 215.253 102.906 Q 216.701 102.293 217.786 101.208 L 217.786 101.208 L 217.786 101.208 Q 218.872 100.123 219.484 98.675 L 219.484 98.675 L 219.484 98.675 Q 220.096 97.228 220.096 95.558 L 220.096 95.558 L 220.096 95.558 Q 220.096 93.888 219.484 92.441 L 219.484 92.441 L 219.484 92.441 Q 218.872 90.994 217.786 89.908 L 217.786 89.908 L 217.786 89.908 Q 216.701 88.823 215.253 88.21 L 215.253 88.21 L 215.253 88.21 Q 213.806 87.598 212.136 87.598 L 212.136 87.598 L 196.161 87.598 L 196.161 87.598 Q 191.207 87.598 186.865 85.706 L 186.865 85.706 L 186.865 85.706 Q 182.523 83.813 179.267 80.557 L 179.267 80.557 L 179.267 80.557 Q 176.01 77.3 174.118 72.931 L 174.118 72.931 L 174.118 72.931 Q 172.225 68.561 172.225 63.607 Z " fill="url(#_lgradient_3)"/></g></g></svg>